PathFileType	4	(X/Y/Z)	D:\TRACE\spot_10-12-23\spot_arm_body_motion_1_4-v60.trc
DataRate	CameraRate	NumFrames	NumMarkers	Units	OrigDataRate	OrigDataStartFrame	OrigNumFrames
100.00	100.00	      25	9	mm	100.00	1	      7000
Frame#	Time	front left toe			Front right toe			aft left toe			aft right toe			Arm			FL body			FR body			AL Body			AR Body			
		X1	Y1	Z1	X2	Y2	Z2	X3	Y3	Z3	X4	Y4	Z4	X5	Y5	Z5	X6	Y6	Z6	X7	Y7	Z7	X8	Y8	Z8	X9	Y9	Z9	

1	0.000	-295.25681	27.48416	30.79357	305.84332	27.68982	78.07613	-336.76331	59.50885	629.15161	257.25717	58.18557	674.62390	35.03978	888.36639	-166.03482	-60.90741	631.11407	-48.27846	93.36951	635.38977	-38.06698	-123.35629	630.58459	831.51239	18.04534	629.00616	843.85278	
2	0.010	-295.21890	27.48688	30.78299	306.42136	27.86334	78.57980	-336.72641	59.56398	629.15662	257.30811	58.20758	674.63910	35.17531	888.99750	-166.46873	-60.80721	631.48663	-48.22504	93.71539	635.56714	-38.17714	-123.42239	630.29083	831.60797	17.96137	628.66705	843.87946	
3	0.020	-295.21637	27.51284	30.76665	306.47961	27.86556	78.60905	-336.69046	59.54707	629.18835	257.30124	58.21217	674.67700	34.94045	889.83429	-166.84459	-60.73678	631.76282	-48.23208	93.76048	635.89801	-38.09953	-123.57423	630.02185	831.71350	17.90304	628.46082	843.82501	
4	0.030	-295.23376	27.47796	30.77295	306.46667	27.80106	78.57623	-336.75919	59.55893	629.19684	257.30960	58.24322	674.70361	34.89343	890.35614	-167.26340	-60.73481	632.00818	-48.19928	93.78788	636.13593	-38.05086	-123.59834	629.81567	831.75128	17.62085	628.25665	843.55908	
5	0.040	-295.25922	27.45984	30.77887	306.42932	27.85240	78.57039	-336.76117	59.55169	629.24194	257.25854	58.23917	674.71753	35.01719	890.88586	-167.66100	-60.76014	632.22418	-48.17541	93.78350	636.40509	-38.01218	-123.55122	629.65063	831.81482	17.33416	628.14746	843.63354	
6	0.050	-295.25024	27.46297	30.76177	306.41373	27.87514	78.56812	-336.76691	59.53952	629.21942	257.27094	58.24543	674.70276	35.15244	891.47662	-168.10760	-60.87136	632.39557	-48.15699	93.63274	636.53162	-37.57255	-123.52196	629.42609	831.78064	17.30900	627.91394	843.72125	
7	0.060	-295.25522	27.47472	30.75188	306.38095	27.85433	78.52455	-336.72766	59.59687	629.24182	257.27774	58.23865	674.73853	35.29261	892.20776	-168.54753	-60.87645	632.56793	-48.07295	93.15706	636.72931	-37.56367	-123.74628	629.29791	831.47333	17.40646	627.64386	843.71527	
8	0.070	-295.24625	27.49557	30.73920	306.36496	27.84212	78.48714	-336.76230	59.53907	629.21722	257.27701	58.20920	674.71655	35.39889	892.78290	-168.81940	-60.86851	632.68079	-48.01190	93.79908	637.03076	-37.58623	-123.56755	629.12793	831.54987	17.41688	627.42438	843.76611	
9	0.080	-295.23923	27.46841	30.72487	306.33762	27.89021	78.47436	-336.81009	59.53870	629.23328	257.27304	58.19684	674.73700	35.34430	893.28766	-169.19354	-60.95647	632.79767	-48.11604	93.03745	637.08185	-37.57718	-122.74866	628.66467	831.38458	17.34857	627.31635	843.82550	
10	0.090	-295.21432	27.44003	30.72984	306.35403	27.88097	78.46273	-336.92322	59.59489	629.28589	257.28403	58.20706	674.78101	35.19059	893.77631	-169.59869	-60.90860	632.84344	-48.07569	93.46338	637.29071	-37.61139	-122.60489	628.52051	831.63953	17.70859	627.19403	844.18402	
11	0.100	-295.19116	27.44448	30.71831	306.38611	27.82440	78.47365	-336.91119	59.51089	629.31537	257.30402	58.22802	674.76978	35.12328	894.16553	-169.89357	-60.86792	632.91620	-48.06792	93.50587	637.35529	-37.66390	-123.45998	628.65356	831.83612	17.90897	627.23468	844.36389	
12	0.110	-295.18405	27.47364	30.67624	306.37518	27.80537	78.46249	-336.95999	59.47965	629.26288	257.33459	58.21825	674.76886	35.09387	894.64044	-170.27774	-60.87745	633.05499	-48.05232	93.46932	637.56726	-37.73270	-123.38963	628.54828	831.89691	20.06694	625.05920	847.48077	
13	0.120	-295.17593	27.46403	30.68126	306.33496	27.83158	78.41082	-336.88901	59.58051	629.29803	257.36819	58.22903	674.75537	35.17832	895.09131	-170.54762	-60.79290	633.21014	-47.93654	92.97122	637.63287	-37.73748	-122.43475	628.26392	831.76294	17.75337	627.30835	844.61865	
14	0.130	-295.22507	27.45512	30.66992	306.31244	27.88665	78.34904	-336.91092	59.54875	629.34485	257.33084	58.24596	674.76202	35.18293	895.58447	-170.76408	-60.81579	633.33441	-47.93124	93.37503	637.86658	-37.75017	-123.37037	628.53229	831.89117	18.02235	627.08502	844.35199	
15	0.140	-295.25568	27.43739	30.69335	306.25912	27.93146	78.33478	-336.97256	59.56292	629.32416	257.32407	58.23721	674.76831	35.22593	895.83832	-171.13609	-61.07798	633.54584	-48.09154	93.35733	637.93799	-37.71259	-122.48308	628.23895	831.72168	17.94588	627.00067	844.26691	
16	0.150	-295.24847	27.42772	30.69517	306.33282	27.96551	78.37897	-336.90350	59.52351	629.30597	257.30487	58.24322	674.78632	35.03246	896.24854	-171.41522	-60.87486	633.51471	-47.94946	93.60641	638.01556	-37.95235	-123.40493	628.52527	831.91174	17.95506	627.06824	844.32050	
17	0.160	-295.22849	27.44414	30.66396	306.37518	27.84743	78.37474	-336.94745	59.57923	629.29077	257.29831	58.24261	674.77777	35.09480	896.76263	-171.79788	-60.81728	633.57599	-47.95376	93.62704	638.10315	-37.98743	-123.39202	628.51141	831.88641	18.01135	627.08954	844.31720	
18	0.170	-295.22342	27.45806	30.62909	306.31122	27.81190	78.37866	-336.87683	59.51771	629.25159	257.33801	58.23008	674.76788	35.12589	897.33154	-172.06795	-60.79294	633.63647	-47.98592	93.69175	638.13171	-37.93873	-123.33276	628.52252	831.86890	17.99923	627.04541	844.31207	
19	0.180	-295.20636	27.46146	30.63136	306.36517	27.80364	78.38148	-336.94373	59.59263	629.28705	257.38556	58.24022	674.79041	35.20435	897.78827	-172.44641	-60.76192	633.72955	-47.99820	93.73930	638.17853	-37.94308	-123.27962	628.42981	831.88037	20.18376	624.94067	847.41901	
20	0.190	-295.21515	27.43469	30.63355	306.35950	27.80262	78.35419	-336.93274	59.56210	629.32135	257.36533	58.24053	674.79242	35.13564	898.33887	-172.63626	-60.74129	633.74341	-48.01586	93.66940	638.25830	-38.07294	-122.39849	628.18317	831.66235	18.00717	626.96289	844.24896	
21	0.200	-295.23837	27.43641	30.65225	306.37009	27.80254	78.35352	-336.94800	59.53506	629.28674	257.33148	58.21559	674.78534	35.08588	898.76917	-172.83347	-60.74483	633.76819	-48.04022	93.70699	638.31433	-38.00116	-122.37048	628.14941	831.66376	18.00352	626.91803	844.19470	
22	0.210	-295.24298	27.39750	30.63921	306.27765	27.80880	78.29798	-336.94083	59.52183	629.32086	257.35638	58.20508	674.80011	35.09710	899.30231	-173.24130	-60.73785	633.92352	-48.06166	93.68185	638.35126	-38.05911	-123.33401	628.40308	831.82745	18.05409	626.86957	844.19379	
23	0.220	-295.22339	27.42466	30.64153	306.30756	27.81571	78.29930	-336.92258	59.53138	629.29169	257.34119	58.21511	674.78589	35.14366	899.72711	-173.59659	-60.64510	634.05951	-48.11454	93.76261	638.42352	-37.95579	-123.38937	628.33209	831.80975	17.96388	626.84283	844.15216	
24	0.230	-295.24475	27.41574	30.60230	306.33875	27.79958	78.34145	-336.89935	59.54346	629.28412	257.34760	58.22228	674.78790	35.21914	900.21155	-174.03050	-60.65630	634.22528	-48.14037	93.84068	638.62878	-37.93732	-122.39668	628.12250	831.64673	17.99918	626.86804	844.17969	
25	0.240	-295.21518	27.43531	30.59254	306.37704	27.77564	78.30543	-336.90326	59.55317	629.27423	257.36316	58.22900	674.79108	35.22623	900.71857	-174.41656	-60.67596	634.32294	-48.11337	93.86900	638.72882	-37.84770	-122.31963	628.09717	831.72131	17.80464	627.04779	844.40997	
